ffmpeg started on 2025-06-19 at 19:09:40
Report written to "D:\Convert\FFMetrics\reports\ssim_report-6.txt"
Log level: 32
Command line:
ffmpeg -hide_banner -nostdin -i "G:\\\xc0\xed\xe8\xec\xe5\\[\xcf\xf0\xee\xf1\xec\xee\xf2\xf0\xe5\xed\xee]\\\xc0\xea\xe0\xe4\xe5\xec\xe8\xff \xc4\xf0\xe0\xea\xee\xed\xfc\xe8\xf5 \xcd\xe0\xe5\xe7\xe4\xed\xe8\xea\xee\xe2\\[AniDub]_Seikoku_no_Dragonar_[03]_[720p_x264_Aac]_[Simbad_and_Holly]_HEVC.mkv" -i "G:\\\xc0\xed\xe8\xec\xe5\\[\xcf\xf0\xee\xf1\xec\xee\xf2\xf0\xe5\xed\xee]\\\xc0\xea\xe0\xe4\xe5\xec\xe8\xff \xc4\xf0\xe0\xea\xee\xed\xfc\xe8\xf5 \xcd\xe0\xe5\xe7\xe4\xed\xe8\xea\xee\xe2\\[AniDub]_Seikoku_no_Dragonar_[03]_[720p_x264_Aac]_[Simbad_and_Holly].mp4" -lavfi "[0:v]settb=AVTB,setpts=PTS-STARTPTS,format=pix_fmts=yuv420p10,fps=24000/1001,scale=1280:720:flags=bicubic[main];[1:v]settb=AVTB,setpts=PTS-STARTPTS,format=pix_fmts=yuv420p,fps=24000/1001,scale=1280:720:flags=bicubic[ref];[main][ref]ssim=eof_action=endall:stats_file='D\\:/Convert/FFMetrics/logs/ssim_logfile-6.txt'" -f null -
Input #0, matroska,webm, from 'G:\Аниме\[Просмотрено]\Академия Драконьих Наездников\[AniDub]_Seikoku_no_Dragonar_[03]_[720p_x264_Aac]_[Simbad_and_Holly]_HEVC.mkv':
  Metadata:
    COMPATIBLE_BRANDS: isom
    MAJOR_BRAND     : isom
    MINOR_VERSION   : 1
    ENCODER         : Lavf61.7.100
  Duration: 00:24:29.09, start: -0.021000, bitrate: 1227 kb/s
  Stream #0:0: Video: hevc (Main 10), yuv420p10le(tv, bt709, progressive), 1280x720 [SAR 1:1 DAR 16:9], 23.98 fps, 23.98 tbr, 1k tbn (default)
      Metadata:
        HANDLER_NAME    : 264
        VENDOR_ID       : [0][0][0][0]
        ENCODER         : Lavc61.19.100 libx265
        BPS             : 1029508
        DURATION        : 00:24:28.967708333
        NUMBER_OF_FRAMES: 35220
        NUMBER_OF_BYTES : 189039234
        _STATISTICS_WRITING_APP: mkvpropedit v66.0.0 ('Josie') 64-bit
        _STATISTICS_WRITING_DATE_UTC: 2025-06-19 14:25:53
        _STATISTICS_TAGS: BPS DURATION NUMBER_OF_FRAMES NUMBER_OF_BYTES
  Stream #0:1(rus): Audio: aac (LC), 48000 Hz, stereo, fltp (default)
      Metadata:
        HANDLER_NAME    : GPAC ISO Audio Handler
        VENDOR_ID       : [0][0][0][0]
        ENCODER         : Lavc61.19.100 aac
        BPS             : 194139
        DURATION        : 00:24:28.970000000
        NUMBER_OF_FRAMES: 68859
        NUMBER_OF_BYTES : 35648130
        _STATISTICS_WRITING_APP: mkvpropedit v66.0.0 ('Josie') 64-bit
        _STATISTICS_WRITING_DATE_UTC: 2025-06-19 14:25:53
        _STATISTICS_TAGS: BPS DURATION NUMBER_OF_FRAMES NUMBER_OF_BYTES
Input #1, mov,mp4,m4a,3gp,3g2,mj2, from 'G:\Аниме\[Просмотрено]\Академия Драконьих Наездников\[AniDub]_Seikoku_no_Dragonar_[03]_[720p_x264_Aac]_[Simbad_and_Holly].mp4':
  Metadata:
    major_brand     : isom
    minor_version   : 1
    compatible_brands: isom
    creation_time   : 2014-05-02T10:39:57.000000Z
    encoder         : Yamb 2.1.0.0 [http://yamb.unite-video.com]
  Duration: 00:24:29.09, start: 0.000000, bitrate: 2766 kb/s
  Stream #1:0[0x1](und): Video: h264 (High) (avc1 / 0x31637661), yuv420p(tv, bt709, progressive), 1280x720 [SAR 1:1 DAR 16:9], 2570 kb/s, 23.98 fps, 23.98 tbr, 24k tbn (default)
      Metadata:
        creation_time   : 2014-04-19T14:30:32.000000Z
        handler_name    : 264
        vendor_id       : [0][0][0][0]
  Stream #1:1[0x2](rus): Audio: aac (LC) (mp4a / 0x6134706D), 48000 Hz, stereo, fltp, 192 kb/s (default)
      Metadata:
        creation_time   : 2014-05-02T10:40:08.000000Z
        handler_name    : GPAC ISO Audio Handler
        vendor_id       : [0][0][0][0]
Stream mapping:
  Stream #0:0 (hevc) -> settb:default
  Stream #1:0 (h264) -> settb:default
  ssim:default -> Stream #0:0 (wrapped_avframe)
  Stream #0:1 -> #0:1 (aac (native) -> pcm_s16le (native))
Output #0, null, to 'pipe:':
  Metadata:
    COMPATIBLE_BRANDS: isom
    MAJOR_BRAND     : isom
    MINOR_VERSION   : 1
    encoder         : Lavf61.7.100
  Stream #0:0: Video: wrapped_avframe, yuv420p10le(tv, bt709, progressive), 1280x720 [SAR 1:1 DAR 16:9], q=2-31, 200 kb/s, 23.98 fps, 23.98 tbn
      Metadata:
        encoder         : Lavc61.19.100 wrapped_avframe
  Stream #0:1(rus): Audio: pcm_s16le, 48000 Hz, stereo, s16, 1536 kb/s (default)
      Metadata:
        HANDLER_NAME    : GPAC ISO Audio Handler
        VENDOR_ID       : [0][0][0][0]
        _STATISTICS_TAGS: BPS DURATION NUMBER_OF_FRAMES NUMBER_OF_BYTES
        BPS             : 194139
        DURATION        : 00:24:28.970000000
        NUMBER_OF_FRAMES: 68859
        NUMBER_OF_BYTES : 35648130
        _STATISTICS_WRITING_APP: mkvpropedit v66.0.0 ('Josie') 64-bit
        _STATISTICS_WRITING_DATE_UTC: 2025-06-19 14:25:53
        encoder         : Lavc61.19.100 pcm_s16le
frame=  343 fps=0.0 q=-0.0 size=N/A time=00:00:14.30 bitrate=N/A speed=27.6x    frame=  830 fps=806 q=-0.0 size=N/A time=00:00:34.61 bitrate=N/A speed=33.6x    frame= 1181 fps=758 q=-0.0 size=N/A time=00:00:49.25 bitrate=N/A speed=31.6x    frame= 1409 fps=681 q=-0.0 size=N/A time=00:00:58.76 bitrate=N/A speed=28.4x    frame= 1755 fps=680 q=-0.0 size=N/A time=00:01:13.19 bitrate=N/A speed=28.4x    frame= 2092 fps=673 q=-0.0 size=N/A time=00:01:27.25 bitrate=N/A speed=28.1x    frame= 2410 fps=666 q=-0.0 size=N/A time=00:01:40.51 bitrate=N/A speed=27.8x    frame= 2772 fps=671 q=-0.0 size=N/A time=00:01:55.61 bitrate=N/A speed=  28x    frame= 3105 fps=669 q=-0.0 size=N/A time=00:02:09.50 bitrate=N/A speed=27.9x    frame= 3438 fps=665 q=-0.0 size=N/A time=00:02:23.39 bitrate=N/A speed=27.7x    frame= 3710 fps=653 q=-0.0 size=N/A time=00:02:34.73 bitrate=N/A speed=27.2x    frame= 3985 fps=644 q=-0.0 size=N/A time=00:02:46.20 bitrate=N/A speed=26.8x    frame= 4467 fps=666 q=-0.0 size=N/A time=00:03:06.31 bitrate=N/A speed=27.8x    frame= 4938 fps=683 q=-0.0 size=N/A time=00:03:25.95 bitrate=N/A speed=28.5x    frame= 5367 fps=693 q=-0.0 size=N/A time=00:03:43.84 bitrate=N/A speed=28.9x    frame= 5819 fps=705 q=-0.0 size=N/A time=00:04:02.70 bitrate=N/A speed=29.4x    frame= 6214 fps=709 q=-0.0 size=N/A time=00:04:19.17 bitrate=N/A speed=29.6x    frame= 6724 fps=724 q=-0.0 size=N/A time=00:04:40.44 bitrate=N/A speed=30.2x    frame= 7043 fps=718 q=-0.0 size=N/A time=00:04:53.75 bitrate=N/A speed=  30x    frame= 7514 fps=728 q=-0.0 size=N/A time=00:05:13.39 bitrate=N/A speed=30.4x    frame= 7945 fps=734 q=-0.0 size=N/A time=00:05:31.37 bitrate=N/A speed=30.6x    frame= 8468 fps=746 q=-0.0 size=N/A time=00:05:53.18 bitrate=N/A speed=31.1x    frame= 8801 fps=742 q=-0.0 size=N/A time=00:06:07.07 bitrate=N/A speed=30.9x    frame= 9159 fps=740 q=-0.0 size=N/A time=00:06:22.00 bitrate=N/A speed=30.9x    frame= 9582 fps=743 q=-0.0 size=N/A time=00:06:39.64 bitrate=N/A speed=  31x    frame= 9977 fps=744 q=-0.0 size=N/A time=00:06:56.12 bitrate=N/A speed=  31x    frame=10399 fps=747 q=-0.0 size=N/A time=00:07:13.72 bitrate=N/A speed=31.1x    frame=10848 fps=751 q=-0.0 size=N/A time=00:07:32.45 bitrate=N/A speed=31.3x    frame=11419 fps=763 q=-0.0 size=N/A time=00:07:56.26 bitrate=N/A speed=31.8x    frame=11832 fps=765 q=-0.0 size=N/A time=00:08:13.49 bitrate=N/A speed=31.9x    frame=12284 fps=768 q=-0.0 size=N/A time=00:08:32.34 bitrate=N/A speed=  32x    frame=12726 fps=771 q=-0.0 size=N/A time=00:08:50.78 bitrate=N/A speed=32.2x    frame=13246 fps=778 q=-0.0 size=N/A time=00:09:12.46 bitrate=N/A speed=32.4x    frame=13711 fps=782 q=-0.0 size=N/A time=00:09:31.86 bitrate=N/A speed=32.6x    frame=14232 fps=789 q=-0.0 size=N/A time=00:09:53.59 bitrate=N/A speed=32.9x    frame=14723 fps=793 q=-0.0 size=N/A time=00:10:14.07 bitrate=N/A speed=33.1x    frame=15151 fps=794 q=-0.0 size=N/A time=00:10:31.92 bitrate=N/A speed=33.1x    frame=15621 fps=797 q=-0.0 size=N/A time=00:10:51.52 bitrate=N/A speed=33.2x    frame=16106 fps=801 q=-0.0 size=N/A time=00:11:11.75 bitrate=N/A speed=33.4x    frame=16569 fps=803 q=-0.0 size=N/A time=00:11:31.06 bitrate=N/A speed=33.5x    frame=17075 fps=807 q=-0.0 size=N/A time=00:11:52.16 bitrate=N/A speed=33.7x    frame=17534 fps=809 q=-0.0 size=N/A time=00:12:11.31 bitrate=N/A speed=33.8x    frame=17958 fps=810 q=-0.0 size=N/A time=00:12:28.99 bitrate=N/A speed=33.8x    frame=18336 fps=808 q=-0.0 size=N/A time=00:12:44.76 bitrate=N/A speed=33.7x    frame=18776 fps=809 q=-0.0 size=N/A time=00:13:03.11 bitrate=N/A speed=33.7x    frame=19253 fps=812 q=-0.0 size=N/A time=00:13:23.01 bitrate=N/A speed=33.9x    frame=19754 fps=815 q=-0.0 size=N/A time=00:13:43.90 bitrate=N/A speed=  34x    frame=20312 fps=820 q=-0.0 size=N/A time=00:14:07.17 bitrate=N/A speed=34.2x    frame=20787 fps=823 q=-0.0 size=N/A time=00:14:26.99 bitrate=N/A speed=34.3x    frame=21290 fps=826 q=-0.0 size=N/A time=00:14:47.97 bitrate=N/A speed=34.4x    frame=21679 fps=824 q=-0.0 size=N/A time=00:15:04.19 bitrate=N/A speed=34.4x    frame=22020 fps=821 q=-0.0 size=N/A time=00:15:18.41 bitrate=N/A speed=34.2x    frame=22463 fps=822 q=-0.0 size=N/A time=00:15:36.89 bitrate=N/A speed=34.3x    frame=22866 fps=821 q=-0.0 size=N/A time=00:15:53.70 bitrate=N/A speed=34.3x    frame=23130 fps=815 q=-0.0 size=N/A time=00:16:04.71 bitrate=N/A speed=  34x    frame=23525 fps=814 q=-0.0 size=N/A time=00:16:21.18 bitrate=N/A speed=  34x    frame=23809 fps=810 q=-0.0 size=N/A time=00:16:33.03 bitrate=N/A speed=33.8x    frame=24196 fps=809 q=-0.0 size=N/A time=00:16:49.17 bitrate=N/A speed=33.7x    frame=24613 fps=809 q=-0.0 size=N/A time=00:17:06.56 bitrate=N/A speed=33.7x    frame=25085 fps=811 q=-0.0 size=N/A time=00:17:26.25 bitrate=N/A speed=33.8x    frame=25516 fps=811 q=-0.0 size=N/A time=00:17:44.22 bitrate=N/A speed=33.8x    frame=25849 fps=809 q=-0.0 size=N/A time=00:17:58.11 bitrate=N/A speed=33.7x    frame=26207 fps=806 q=-0.0 size=N/A time=00:18:13.05 bitrate=N/A speed=33.6x    frame=26671 fps=808 q=-0.0 size=N/A time=00:18:32.40 bitrate=N/A speed=33.7x    frame=27191 fps=811 q=-0.0 size=N/A time=00:18:54.09 bitrate=N/A speed=33.8x    frame=27660 fps=813 q=-0.0 size=N/A time=00:19:13.65 bitrate=N/A speed=33.9x    frame=28196 fps=816 q=-0.0 size=N/A time=00:19:36.00 bitrate=N/A speed=  34x    frame=28736 fps=819 q=-0.0 size=N/A time=00:19:58.53 bitrate=N/A speed=34.2x    frame=29203 fps=821 q=-0.0 size=N/A time=00:20:18.00 bitrate=N/A speed=34.2x    frame=29623 fps=820 q=-0.0 size=N/A time=00:20:35.52 bitrate=N/A speed=34.2x    frame=30103 fps=822 q=-0.0 size=N/A time=00:20:55.54 bitrate=N/A speed=34.3x    frame=30494 fps=821 q=-0.0 size=N/A time=00:21:11.85 bitrate=N/A speed=34.3x    frame=30969 fps=823 q=-0.0 size=N/A time=00:21:31.66 bitrate=N/A speed=34.3x    frame=31507 fps=825 q=-0.0 size=N/A time=00:21:54.10 bitrate=N/A speed=34.4x    frame=31947 fps=826 q=-0.0 size=N/A time=00:22:12.45 bitrate=N/A speed=34.4x    frame=32345 fps=825 q=-0.0 size=N/A time=00:22:29.05 bitrate=N/A speed=34.4x    frame=32730 fps=824 q=-0.0 size=N/A time=00:22:45.11 bitrate=N/A speed=34.4x    frame=33091 fps=823 q=-0.0 size=N/A time=00:23:00.17 bitrate=N/A speed=34.3x    frame=33440 fps=821 q=-0.0 size=N/A time=00:23:14.72 bitrate=N/A speed=34.2x    frame=33759 fps=818 q=-0.0 size=N/A time=00:23:28.03 bitrate=N/A speed=34.1x    frame=34080 fps=816 q=-0.0 size=N/A time=00:23:41.42 bitrate=N/A speed=  34x    frame=34406 fps=814 q=-0.0 size=N/A time=00:23:55.01 bitrate=N/A speed=33.9x    frame=34739 fps=812 q=-0.0 size=N/A time=00:24:08.90 bitrate=N/A speed=33.9x    frame=35205 fps=813 q=-0.0 size=N/A time=00:24:28.34 bitrate=N/A speed=33.9x    [Parsed_ssim_10 @ 000001ddab95f400] SSIM Y:0.991397 (20.653277) U:0.991706 (20.812191) V:0.991897 (20.913355) All:0.991531 (20.721897)
[out#0/null @ 000001dda71017c0] video:15134KiB audio:275436KiB subtitle:0KiB other streams:0KiB global headers:0KiB muxing overhead: unknown
frame=35220 fps=813 q=-0.0 Lsize=N/A time=00:24:28.96 bitrate=N/A speed=33.9x    
